# xmcd
#
# Track frame offsets: 
#        150
#        4712
#        15962
#        39220
#        68292
#        88597
#        116304
#        139137
#        162287
#        183992
#        212345
#        230445
#        250257
#        269552
#
# Disc length: 3685 seconds
#
# Revision: 1
# Processed by: cddbd v1.5.2PL0 Copyright (c) Steve Scherf et al.
# Submitted via: ExactAudioCopy v0.99pb4
#
DISCID=a30e630e
DTITLE=Wildwest - Abenteuer - In den Bergen des Aberglaubens (19)
DYEAR=2003
DGENRE=Speech
TTITLE0=Zugedröhnt
TTITLE1=Bei Kojoten und Kakteen
TTITLE2=Ein Paradies in der Düre
TTITLE3=Streit ums Streiten
TTITLE4=Der süsse Köder
TTITLE5=Jagd nach dem gestohlenen Radio
TTITLE6=Der Apachenponcho
TTITLE7=Wer haust dort oben
TTITLE8=Nora
TTITLE9=Heimlich beobachtet
TTITLE10=Flüchten oder standhalten
TTITLE11=Dem Unglück fast entronnen
TTITLE12=Der Steinschlag
TTITLE13=Alles klar - Bis auf
EXTD=
EXTT0=
EXTT1=
EXTT2=
EXTT3=
EXTT4=
EXTT5=
EXTT6=
EXTT7=
EXTT8=
EXTT9=
EXTT10=
EXTT11=
EXTT12=
EXTT13=
PLAYORDER=
